<svg id="visual" viewBox="0 0 900 600" width="900" height="600" xmlns="http://www.w3.org/2000/svg" xmlns:xlink="http://www.w3.org/1999/xlink" version="1.1"><g stroke-width="1" stroke-linejoin="bevel"><path d="M481 282L518 198L401 198Z" fill="#bdbbbb" stroke="#bdbbbb"></path><path d="M518 198L485 111L401 198Z" fill="#d8d8d8" stroke="#d8d8d8"></path><path d="M401 198L387 314L481 282Z" fill="#d4d3d3" stroke="#d4d3d3"></path><path d="M481 282L584 212L518 198Z" fill="#d4d3d3" stroke="#d4d3d3"></path><path d="M518 198L602 85L485 111Z" fill="#d4d3d3" stroke="#d4d3d3"></path><path d="M485 111L391 90L401 198Z" fill="#dcdcdc" stroke="#dcdcdc"></path><path d="M401 198L308 286L387 314Z" fill="#c1bfbf" stroke="#c1bfbf"></path><path d="M391 90L314 181L401 198Z" fill="#bdbbbb" stroke="#bdbbbb"></path><path d="M510 403L600 306L481 282Z" fill="#b9b7b7" stroke="#b9b7b7"></path><path d="M481 282L600 306L584 212Z" fill="#e0e0e0" stroke="#e0e0e0"></path><path d="M314 181L308 286L401 198Z" fill="#b9b7b7" stroke="#b9b7b7"></path><path d="M308 286L389 388L387 314Z" fill="#cccbcb" stroke="#cccbcb"></path><path d="M387 314L389 388L481 282Z" fill="#b9b7b7" stroke="#b9b7b7"></path><path d="M389 388L510 403L481 282Z" fill="#cccbcb" stroke="#cccbcb"></path><path d="M697 187L602 85L584 212Z" fill="#c4c3c3" stroke="#c4c3c3"></path><path d="M584 212L602 85L518 198Z" fill="#c4c3c3" stroke="#c4c3c3"></path><path d="M485 111L493 0L391 90Z" fill="#d4d3d3" stroke="#d4d3d3"></path><path d="M391 90L288 111L314 181Z" fill="#b9b7b7" stroke="#b9b7b7"></path><path d="M314 181L210 187L308 286Z" fill="#c4c3c3" stroke="#c4c3c3"></path><path d="M602 85L493 0L485 111Z" fill="#c1bfbf" stroke="#c1bfbf"></path><path d="M391 90L303 0L288 111Z" fill="#c1bfbf" stroke="#c1bfbf"></path><path d="M510 403L594 411L600 306Z" fill="#bdbbbb" stroke="#bdbbbb"></path><path d="M493 0L394 0L391 90Z" fill="#c1bfbf" stroke="#c1bfbf"></path><path d="M709 282L584 212L600 306Z" fill="#c8c7c7" stroke="#c8c7c7"></path><path d="M709 282L697 187L584 212Z" fill="#c1bfbf" stroke="#c1bfbf"></path><path d="M207 94L210 187L288 111Z" fill="#c4c3c3" stroke="#c4c3c3"></path><path d="M288 111L210 187L314 181Z" fill="#cccbcb" stroke="#cccbcb"></path><path d="M308 286L282 405L389 388Z" fill="#b9b7b7" stroke="#b9b7b7"></path><path d="M210 306L282 405L308 286Z" fill="#d8d8d8" stroke="#d8d8d8"></path><path d="M389 388L396 510L510 403Z" fill="#b9b7b7" stroke="#b9b7b7"></path><path d="M510 403L504 514L594 411Z" fill="#d4d3d3" stroke="#d4d3d3"></path><path d="M694 414L709 282L600 306Z" fill="#bdbbbb" stroke="#bdbbbb"></path><path d="M685 90L595 0L602 85Z" fill="#d0cfcf" stroke="#d0cfcf"></path><path d="M602 85L595 0L493 0Z" fill="#c4c3c3" stroke="#c4c3c3"></path><path d="M697 187L685 90L602 85Z" fill="#c1bfbf" stroke="#c1bfbf"></path><path d="M703 0L685 90L789 0Z" fill="#d8d8d8" stroke="#d8d8d8"></path><path d="M210 187L210 306L308 286Z" fill="#c4c3c3" stroke="#c4c3c3"></path><path d="M394 0L303 0L391 90Z" fill="#e0e0e0" stroke="#e0e0e0"></path><path d="M303 0L207 94L288 111Z" fill="#dcdcdc" stroke="#dcdcdc"></path><path d="M84 318L187 404L210 306Z" fill="#c4c3c3" stroke="#c4c3c3"></path><path d="M299 506L396 510L389 388Z" fill="#c8c7c7" stroke="#c8c7c7"></path><path d="M396 510L504 514L510 403Z" fill="#dcdcdc" stroke="#dcdcdc"></path><path d="M594 411L694 414L600 306Z" fill="#bdbbbb" stroke="#bdbbbb"></path><path d="M615 500L694 414L594 411Z" fill="#dcdcdc" stroke="#dcdcdc"></path><path d="M504 514L615 500L594 411Z" fill="#cccbcb" stroke="#cccbcb"></path><path d="M282 405L299 506L389 388Z" fill="#c4c3c3" stroke="#c4c3c3"></path><path d="M187 488L299 506L282 405Z" fill="#dcdcdc" stroke="#dcdcdc"></path><path d="M105 191L210 306L210 187Z" fill="#d0cfcf" stroke="#d0cfcf"></path><path d="M210 306L187 404L282 405Z" fill="#c1bfbf" stroke="#c1bfbf"></path><path d="M805 103L685 90L697 187Z" fill="#cccbcb" stroke="#cccbcb"></path><path d="M685 90L703 0L595 0Z" fill="#c4c3c3" stroke="#c4c3c3"></path><path d="M808 305L790 210L709 282Z" fill="#d4d3d3" stroke="#d4d3d3"></path><path d="M709 282L790 210L697 187Z" fill="#e0e0e0" stroke="#e0e0e0"></path><path d="M303 0L200 0L207 94Z" fill="#c1bfbf" stroke="#c1bfbf"></path><path d="M115 114L105 191L210 187Z" fill="#bdbbbb" stroke="#bdbbbb"></path><path d="M115 114L210 187L207 94Z" fill="#d4d3d3" stroke="#d4d3d3"></path><path d="M788 395L808 305L709 282Z" fill="#bdbbbb" stroke="#bdbbbb"></path><path d="M788 395L709 282L694 414Z" fill="#e0e0e0" stroke="#e0e0e0"></path><path d="M114 0L115 114L207 94Z" fill="#d4d3d3" stroke="#d4d3d3"></path><path d="M617 600L685 507L615 500Z" fill="#cccbcb" stroke="#cccbcb"></path><path d="M615 500L685 507L694 414Z" fill="#c8c7c7" stroke="#c8c7c7"></path><path d="M790 210L805 103L697 187Z" fill="#d4d3d3" stroke="#d4d3d3"></path><path d="M900 210L805 103L790 210Z" fill="#c4c3c3" stroke="#c4c3c3"></path><path d="M799 509L788 395L694 414Z" fill="#d4d3d3" stroke="#d4d3d3"></path><path d="M396 510L498 600L504 514Z" fill="#d0cfcf" stroke="#d0cfcf"></path><path d="M504 514L617 600L615 500Z" fill="#bdbbbb" stroke="#bdbbbb"></path><path d="M397 600L498 600L396 510Z" fill="#d8d8d8" stroke="#d8d8d8"></path><path d="M187 404L187 488L282 405Z" fill="#d4d3d3" stroke="#d4d3d3"></path><path d="M299 506L397 600L396 510Z" fill="#d0cfcf" stroke="#d0cfcf"></path><path d="M106 487L187 488L187 404Z" fill="#c1bfbf" stroke="#c1bfbf"></path><path d="M283 600L397 600L299 506Z" fill="#d8d8d8" stroke="#d8d8d8"></path><path d="M0 196L84 318L105 191Z" fill="#b9b7b7" stroke="#b9b7b7"></path><path d="M105 191L84 318L210 306Z" fill="#c1bfbf" stroke="#c1bfbf"></path><path d="M805 103L789 0L685 90Z" fill="#e0e0e0" stroke="#e0e0e0"></path><path d="M498 600L617 600L504 514Z" fill="#c1bfbf" stroke="#c1bfbf"></path><path d="M685 507L799 509L694 414Z" fill="#d4d3d3" stroke="#d4d3d3"></path><path d="M200 0L114 0L207 94Z" fill="#c1bfbf" stroke="#c1bfbf"></path><path d="M0 102L0 196L105 191Z" fill="#bdbbbb" stroke="#bdbbbb"></path><path d="M84 318L96 418L187 404Z" fill="#d4d3d3" stroke="#d4d3d3"></path><path d="M192 600L299 506L187 488Z" fill="#d0cfcf" stroke="#d0cfcf"></path><path d="M192 600L283 600L299 506Z" fill="#bdbbbb" stroke="#bdbbbb"></path><path d="M900 281L790 210L808 305Z" fill="#c1bfbf" stroke="#c1bfbf"></path><path d="M900 281L900 210L790 210Z" fill="#dcdcdc" stroke="#dcdcdc"></path><path d="M805 103L900 85L789 0Z" fill="#d4d3d3" stroke="#d4d3d3"></path><path d="M96 418L106 487L187 404Z" fill="#d4d3d3" stroke="#d4d3d3"></path><path d="M706 600L799 509L685 507Z" fill="#cccbcb" stroke="#cccbcb"></path><path d="M900 400L900 281L808 305Z" fill="#cccbcb" stroke="#cccbcb"></path><path d="M900 400L808 305L788 395Z" fill="#c8c7c7" stroke="#c8c7c7"></path><path d="M617 600L706 600L685 507Z" fill="#b9b7b7" stroke="#b9b7b7"></path><path d="M0 102L105 191L115 114Z" fill="#d0cfcf" stroke="#d0cfcf"></path><path d="M84 318L0 406L96 418Z" fill="#c8c7c7" stroke="#c8c7c7"></path><path d="M96 418L0 508L106 487Z" fill="#c4c3c3" stroke="#c4c3c3"></path><path d="M900 210L900 85L805 103Z" fill="#dcdcdc" stroke="#dcdcdc"></path><path d="M108 600L192 600L187 488Z" fill="#c4c3c3" stroke="#c4c3c3"></path><path d="M0 196L0 300L84 318Z" fill="#c1bfbf" stroke="#c1bfbf"></path><path d="M799 509L900 400L788 395Z" fill="#dcdcdc" stroke="#dcdcdc"></path><path d="M114 0L0 102L115 114Z" fill="#d8d8d8" stroke="#d8d8d8"></path><path d="M900 85L900 0L789 0Z" fill="#dcdcdc" stroke="#dcdcdc"></path><path d="M0 300L0 406L84 318Z" fill="#dcdcdc" stroke="#dcdcdc"></path><path d="M106 487L108 600L187 488Z" fill="#d8d8d8" stroke="#d8d8d8"></path><path d="M114 0L0 0L0 102Z" fill="#c8c7c7" stroke="#c8c7c7"></path><path d="M0 508L108 600L106 487Z" fill="#cccbcb" stroke="#cccbcb"></path><path d="M706 600L818 600L799 509Z" fill="#c4c3c3" stroke="#c4c3c3"></path><path d="M799 509L900 517L900 400Z" fill="#b9b7b7" stroke="#b9b7b7"></path><path d="M818 600L900 517L799 509Z" fill="#d0cfcf" stroke="#d0cfcf"></path><path d="M0 406L0 508L96 418Z" fill="#dcdcdc" stroke="#dcdcdc"></path><path d="M818 600L900 600L900 517Z" fill="#d4d3d3" stroke="#d4d3d3"></path><path d="M0 508L0 600L108 600Z" fill="#d8d8d8" stroke="#d8d8d8"></path></g></svg>